<?xml version="1.0" encoding="utf-8"?>
<!-- Generator: Adobe Illustrator 24.1.2, SVG Export Plug-In . SVG Version: 6.00 Build 0)  -->
<svg version="1.1" id="Warstwa_3" xmlns="http://www.w3.org/2000/svg" xmlns:xlink="http://www.w3.org/1999/xlink" x="0px" y="0px"
	 viewBox="0 0 430 430" style="enable-background:new 0 0 430 430;" xml:space="preserve">
<style type="text/css">
	.st0{fill:#121331;}
	.st1{fill:#08A385;}
	.st2{fill:none;stroke:#121331;stroke-width:14;stroke-linecap:round;stroke-linejoin:round;stroke-miterlimit:10;}
	.st3{fill:none;stroke:#08A385;stroke-width:12;stroke-linecap:round;stroke-linejoin:round;stroke-miterlimit:10;}
	.st4{fill:#06A385;}
	.st5{fill:none;stroke:#121331;stroke-width:12;stroke-linecap:round;stroke-linejoin:round;stroke-miterlimit:10;}
	.st6{fill:#08A789;}
	.st7{fill:#08A284;}
	.st8{fill:#08A688;}
	.st9{fill:#08A88A;}
</style>
<g>
	<path class="st0" d="M282.45,261.62H147.55c-3.31,0-6-2.69-6-6V142.61c0-3.31,2.69-6,6-6h134.91c3.31,0,6,2.69,6,6v113.01
		C288.45,258.93,285.77,261.62,282.45,261.62z M153.55,249.62h122.91V148.61H153.55V249.62z"/>
	<g>
		<path class="st7" d="M240.3,231.99c-12.81,0-23.22-10.42-23.22-23.23c0-10.45,13.9-33.07,18.17-39.75
			c1.1-1.73,3.01-2.77,5.06-2.77c2.05,0,3.96,1.05,5.06,2.77c4.26,6.68,18.17,29.3,18.17,39.75
			C263.52,221.57,253.1,231.99,240.3,231.99z M240.3,183.8c-6.02,10.41-11.22,21.2-11.22,24.96c0,6.19,5.04,11.23,11.22,11.23
			s11.23-5.04,11.23-11.23C251.52,205.01,246.32,194.21,240.3,183.8z"/>
		<g>
			<path class="st0" d="M197.32,190.61h-24.85c-3.31,0-6-2.69-6-6s2.69-6,6-6h24.85c3.31,0,6,2.69,6,6S200.64,190.61,197.32,190.61z
				"/>
			<path class="st0" d="M197.32,219.61h-24.85c-3.31,0-6-2.69-6-6s2.69-6,6-6h24.85c3.31,0,6,2.69,6,6S200.64,219.61,197.32,219.61z
				"/>
		</g>
	</g>
	<path class="st0" d="M284.48,88.19c-10.8-3.93-23.12-6.85-36.09-8.76C246.4,62.1,232.19,48.6,215,48.6
		c-16.87,0-30.88,12.99-33.27,29.86c-13.19,1.59-25.53,4.29-36.05,8.12c-17.99,6.54-30.08,23.76-30.08,42.85v164.02
		c0,19.87,12.74,37.31,31.69,43.4c6.12,1.97,12.69,3.63,19.53,5.02v27.52h-2.93c-3.31,0-6,2.69-6,6s2.69,6,6,6h17.86
		c3.31,0,6-2.69,6-6s-2.69-6-6-6h-2.93v-25.43c9.79,1.45,19.97,2.35,30.18,2.7v28.73c0,3.31,2.69,6,6,6s6-2.69,6-6v-28.59
		c10.31-0.09,20.49-0.74,30.18-1.97v24.56h-2.93c-3.31,0-6,2.69-6,6s2.69,6,6,6h17.86c3.31,0,6-2.69,6-6s-2.69-6-6-6h-2.93v-26.42
		c6.98-1.3,13.59-2.92,19.65-4.88c18.89-6.12,31.58-23.54,31.58-43.36V130.99C314.4,111.91,302.38,94.71,284.48,88.19z M215,60.6
		c10.09,0,18.59,7.38,20.97,17.33c-13.84-1.32-28.09-1.53-41.78-0.62C196.77,67.68,205.12,60.6,215,60.6z M302.4,294.74
		c0,14.6-9.35,27.44-23.28,31.95c-34.69,11.23-90.99,10.68-128.17-1.25c-13.97-4.48-23.36-17.33-23.36-31.97V129.43
		c0-14.06,8.91-26.75,22.18-31.57c24.17-8.79,59.8-11.12,91.78-7.19c0.18,0.03,0.36,0.05,0.54,0.07
		c13.88,1.74,27.05,4.65,38.28,8.73c13.18,4.8,22.03,17.46,22.03,31.52V294.74z"/>
</g>
</svg>
